# xmcd
#
# Track frame offsets: 
#        150
#        8261
#        17646
#        26647
#        38270
#        49318
#        55006
#        66179
#        77920
#        89934
#        99720
#        109727
#        121738
#        130747
#        139397
#        150111
#        160426
#        168648
#        180166
#        189231
#        200156
#        209489
#        217778
#        225725
#
# Disc length: 3128 seconds
#
# Revision: 0
# Processed by: cddbd v1.5.2PL0 Copyright (c) Steve Scherf et al.
# Submitted via: ExactAudioCopyFreeDBPlugin 1.0
#
DISCID=3c0c3618
DTITLE=Cash, Johnny - The Complete Releases 1957-1962 [CD5]
DYEAR=1961
DGENRE=Country
TTITLE0=Sugartime
TTITLE1=Down The Street To Three Hundred One
TTITLE2=Life Goes On
TTITLE3=Port Of Lonely Hearts
TTITLE4=Cry! Cry! Cry!
TTITLE5=My Treasure
TTITLE6=Oh Lonesome Me
TTITLE7=So Doggone Lonesome
TTITLE8=You're The Nearest Thing To Heaven
TTITLE9=The Story Of A Broken Heart
TTITLE10=Hey Porter
TTITLE11=Home Of The Blues
TTITLE12=Lost On The Desert
TTITLE13=Accidentally On Purpose
TTITLE14=In The Jailhouse Now
TTITLE15=Mr Lonesome
TTITLE16=You Won't Have Far To Go
TTITLE17=In Them Old Cottonfields Back Home
TTITLE18=Delia's Gone
TTITLE19=I Forgot More Than You'll Ever Know About Her
TTITLE20=You Remembered Me
TTITLE21=I'm Free From The Chain Gang Now
TTITLE22=Let Me Down Easy
TTITLE23=Sing It Pretty Sue
EXTD=
EXTT0=
EXTT1=
EXTT2=
EXTT3=
EXTT4=
EXTT5=
EXTT6=
EXTT7=
EXTT8=
EXTT9=
EXTT10=
EXTT11=
EXTT12=
EXTT13=
EXTT14=
EXTT15=
EXTT16=
EXTT17=
EXTT18=
EXTT19=
EXTT20=
EXTT21=
EXTT22=
EXTT23=
PLAYORDER=
